{
	"asset":{
		"generator":"Khronos glTF Blender I/O v3.5.30",
		"version":"2.0"
	},
	"extensionsUsed":[
		"KHR_materials_specular",
		"KHR_materials_ior"
	],
	"scene":0,
	"scenes":[
		{
			"name":"Scene",
			"nodes":[
				0
			]
		}
	],
	"nodes":[
		{
			"mesh":0,
			"name":"question_mark.001",
			"rotation":[
				0.7071068286895752,
				0,
				0,
				0.7071068286895752
			]
		}
	],
	"materials":[
		{
			"doubleSided":true,
			"extensions":{
				"KHR_materials_specular":{
					"specularColorFactor":[
						0,
						0,
						0
					]
				},
				"KHR_materials_ior":{
					"ior":1.4500000476837158
				}
			},
			"name":"question_mark_mtl.001",
			"pbrMetallicRoughness":{
				"baseColorTexture":{
					"index":0
				},
				"metallicFactor":0
			}
		}
	],
	"meshes":[
		{
			"name":"question_mark.001",
			"primitives":[
				{
					"attributes":{
						"POSITION":0,
						"TEXCOORD_0":1,
						"NORMAL":2
					},
					"indices":3,
					"material":0
				}
			]
		}
	],
	"textures":[
		{
			"sampler":0,
			"source":0
		}
	],
	"images":[
		{
			"bufferView":4,
			"mimeType":"image/png",
			"name":"question_mark_tex"
		}
	],
	"accessors":[
		{
			"bufferView":0,
			"componentType":5126,
			"count":286,
			"max":[
				0.5,
				0.25,
				0.5
			],
			"min":[
				-1.5,
				-0.5,
				-4
			],
			"type":"VEC3"
		},
		{
			"bufferView":1,
			"componentType":5126,
			"count":286,
			"type":"VEC2"
		},
		{
			"bufferView":2,
			"componentType":5126,
			"count":286,
			"type":"VEC3"
		},
		{
			"bufferView":3,
			"componentType":5123,
			"count":432,
			"type":"SCALAR"
		}
	],
	"bufferViews":[
		{
			"buffer":0,
			"byteLength":3432,
			"byteOffset":0,
			"target":34962
		},
		{
			"buffer":0,
			"byteLength":2288,
			"byteOffset":3432,
			"target":34962
		},
		{
			"buffer":0,
			"byteLength":3432,
			"byteOffset":5720,
			"target":34962
		},
		{
			"buffer":0,
			"byteLength":864,
			"byteOffset":9152,
			"target":34963
		},
		{
			"buffer":0,
			"byteLength":612,
			"byteOffset":10016
		}
	],
	"samplers":[
		{
			"magFilter":9729,
			"minFilter":9987
		}
	],
	"buffers":[
		{
			"byteLength":10628,
			"uri":"data:application/octet-stream;base64,"
		}
	]
}
