{
	"asset":{
		"generator":"Khronos glTF Blender I/O v3.5.30",
		"version":"2.0"
	},
	"extensionsUsed":[
		"KHR_materials_specular",
		"KHR_materials_ior"
	],
	"scene":0,
	"scenes":[
		{
			"name":"Scene",
			"nodes":[
				0
			]
		}
	],
	"nodes":[
		{
			"mesh":0,
			"name":"street",
			"rotation":[
				0.7071068286895752,
				0,
				0,
				0.7071068286895752
			],
			"translation":[
				0,
				0.05715584382414818,
				0
			]
		}
	],
	"materials":[
		{
			"alphaCutoff":0.5,
			"alphaMode":"MASK",
			"extensions":{
				"KHR_materials_specular":{
					"specularColorFactor":[
						0,
						0,
						0
					]
				},
				"KHR_materials_ior":{
					"ior":1.4500000476837158
				}
			},
			"name":"main_tex",
			"pbrMetallicRoughness":{
				"baseColorTexture":{
					"index":0
				},
				"metallicFactor":0
			}
		}
	],
	"meshes":[
		{
			"name":"street",
			"primitives":[
				{
					"attributes":{
						"POSITION":0,
						"TEXCOORD_0":1,
						"NORMAL":2
					},
					"indices":3,
					"material":0
				}
			]
		}
	],
	"textures":[
		{
			"sampler":0,
			"source":0
		}
	],
	"images":[
		{
			"bufferView":4,
			"mimeType":"image/png",
			"name":"spritesheet"
		}
	],
	"accessors":[
		{
			"bufferView":0,
			"componentType":5126,
			"count":37,
			"max":[
				1,
				1,
				0
			],
			"min":[
				-1,
				-2,
				-5.5
			],
			"type":"VEC3"
		},
		{
			"bufferView":1,
			"componentType":5126,
			"count":37,
			"type":"VEC2"
		},
		{
			"bufferView":2,
			"componentType":5126,
			"count":37,
			"type":"VEC3"
		},
		{
			"bufferView":3,
			"componentType":5123,
			"count":51,
			"type":"SCALAR"
		}
	],
	"bufferViews":[
		{
			"buffer":0,
			"byteLength":444,
			"byteOffset":0,
			"target":34962
		},
		{
			"buffer":0,
			"byteLength":296,
			"byteOffset":444,
			"target":34962
		},
		{
			"buffer":0,
			"byteLength":444,
			"byteOffset":740,
			"target":34962
		},
		{
			"buffer":0,
			"byteLength":102,
			"byteOffset":1184,
			"target":34963
		},
		{
			"buffer":0,
			"byteLength":2086,
			"byteOffset":1288
		}
	],
	"samplers":[
		{
			"magFilter":9728,
			"minFilter":9984
		}
	],
	"buffers":[
		{
			"byteLength":3376,
			"uri":"data:application/octet-stream;base64,"
		}
	]
}
